<svg id="Layer_1" enable-background="new 0 0 512.024 512.024" height="512" viewBox="0 0 512.024 512.024" width="512" xmlns="http://www.w3.org/2000/svg"><g><g clip-rule="evenodd" fill-rule="evenodd"><path d="m299.311 186.495-26.237-48.264c-1.757-3.228-4.444-5.998-7.93-7.857-9.477-5.055-21.258-1.469-26.313 8.008l-25.328 47.546-53.436 9.93c-3.851.579-7.566 2.316-10.587 5.221-7.75 7.455-7.989 19.783-.534 27.533l37.415 38.806-6.966 53.112c-.839 4.071-.39 8.44 1.57 12.466 4.717 9.688 16.396 13.717 26.084 9l48.411-23.565 49.625 23.641c3.321 1.585 7.141 2.22 11.059 1.678 10.657-1.474 18.101-11.309 16.627-21.966l-7.459-53.378 37.011-39.039c2.996-2.796 5.14-6.552 5.899-10.9 1.853-10.615-5.249-20.723-15.864-22.576z" fill="#ffc144"/><path d="m305.085 342.072-49.625-23.641-48.411 23.565c-9.688 4.717-21.367.688-26.084-9-1.96-4.025-2.409-8.394-1.57-12.466l6.966-53.112-37.415-38.806c-7.455-7.75-7.216-20.078.534-27.533 3.02-2.905 6.736-4.642 10.587-5.221l53.436-9.93 25.328-47.546c5.055-9.477 16.836-13.063 26.313-8.008 3.486 1.859 6.173 4.628 7.93 7.857l26.237 48.264 53.048 9.397c10.615 1.853 17.717 11.961 15.864 22.576-.759 4.347-2.903 8.104-5.899 10.9l-37.011 39.039 7.459 53.378c1.474 10.657-5.97 20.492-16.627 21.966-3.918.541-7.739-.094-11.06-1.679zm-209.073-208.449v136.222c0 43.859 17.319 84.204 45.463 117.306 29.632 34.852 70.69 60.883 114.541 74.035 43.853-13.152 84.905-39.188 114.534-74.036 28.14-33.098 45.473-73.44 45.463-117.297l-.03-136.189-159.984-81.106z" fill="#ffea60"/><path d="m370.549 387.15c-29.628 34.848-70.681 60.883-114.534 74.036-43.851-13.153-84.909-39.183-114.541-74.035-28.144-33.102-45.463-73.447-45.463-117.306v-136.222l159.987-81.065 159.983 81.107.03 136.189c.011 43.856-17.321 84.198-45.462 117.296zm-104.841-374.516c-5.746-3.309-12.984-3.599-19.189-.114l-179.177 90.788c-6.696 3.235-11.33 10.204-11.33 18.281v148.256c0 54.029 21.125 103.386 54.988 143.216 35.643 41.922 85.505 73.27 139.495 88.158 3.348 1.001 6.996 1.106 10.611.118 54.152-14.84 104.181-46.244 139.918-88.276 33.863-39.829 54.988-89.186 54.988-143.215l-.032-148.256c-.007-7.117-3.702-14.014-10.232-17.682z" fill="#ffc144"/></g><g><path d="m465.979 121.58c-.01-10.971-5.887-21.084-15.335-26.391-.124-.069-.249-.137-.375-.2l-179.826-91.167c-8.96-5.047-19.618-5.099-28.615-.135l-178.928 90.661c-10.262 5.003-16.888 15.685-16.888 27.241v148.256c0 53.786 19.838 105.549 57.37 149.693 36.853 43.345 88.118 75.764 144.356 91.293 2.695.794 5.475 1.192 8.26 1.192 2.602 0 5.208-.348 7.751-1.043 56.453-15.471 107.911-47.946 144.894-91.443 37.531-44.144 57.369-95.906 57.369-149.694zm-72.574 285.002c-34.404 40.465-82.328 70.691-134.936 85.107-1.71.468-3.429.45-5.109-.053-.068-.021-.138-.04-.207-.06-52.452-14.462-100.23-44.647-134.534-84.994-34.416-40.479-52.607-87.763-52.607-136.738v-148.255c0-3.969 2.23-7.61 5.681-9.277.057-.027.113-.055.169-.084l179.177-90.788c.127-.064.252-.131.377-.201 1.44-.809 3.017-1.212 4.594-1.212 1.617 0 3.235.424 4.707 1.271.154.089.311.174.469.254l179.816 91.161c3.071 1.8 4.974 5.187 4.978 8.878l.032 148.254c0 48.976-18.191 96.259-52.607 136.737z"/><path d="m420.504 124.746-159.983-81.107c-2.842-1.441-6.2-1.44-9.042-.001l-39.849 20.192c-4.926 2.496-6.896 8.514-4.4 13.439 2.497 4.928 8.513 6.898 13.44 4.4l35.327-17.9 149.986 76.038.029 130.049c.009 39.337-14.889 77.656-43.082 110.816-27.344 32.161-65.218 56.958-106.915 70.054-41.704-13.099-79.581-37.895-106.922-70.053-28.184-33.149-43.082-71.473-43.082-110.828v-130.078l34.362-17.412c4.926-2.496 6.896-8.514 4.4-13.439-2.496-4.928-8.515-6.897-13.44-4.4l-39.842 20.188c-3.361 1.703-5.48 5.151-5.48 8.92v136.222c0 44.165 16.544 86.969 47.844 123.783 30.437 35.8 72.8 63.193 119.287 77.136.937.281 1.905.422 2.873.422s1.936-.141 2.873-.422c46.479-13.939 88.84-41.334 119.28-77.137 31.31-36.826 47.854-79.627 47.844-123.775l-.03-136.189c-.001-3.769-2.118-7.215-5.478-8.918z"/><path d="m141.747 235.553 34.073 35.339-6.297 48.013c-1.212 6.304-.367 12.682 2.452 18.469 5.104 10.482 15.636 16.59 26.58 16.589 4.329 0 8.725-.956 12.871-2.976l44.082-21.457 45.271 21.566c5.18 2.474 10.969 3.357 16.736 2.56 7.8-1.079 14.714-5.131 19.466-11.41 4.752-6.278 6.776-14.031 5.695-21.845l-6.792-48.609 33.509-35.344c4.589-4.379 7.588-9.994 8.682-16.261 1.355-7.765-.394-15.593-4.926-22.042-4.532-6.45-11.305-10.749-19.045-12.1l-48.306-8.558-23.938-44.033c0-.001-.001-.002-.002-.004-2.757-5.066-6.91-9.183-12.007-11.899-14.33-7.642-32.202-2.202-39.845 12.129l-23.064 43.295-48.55 9.022c-5.987.939-11.462 3.66-15.843 7.874-11.714 11.266-12.076 29.96-.802 41.682zm14.665-27.267c1.424-1.369 3.202-2.247 5.142-2.539.114-.017.227-.036.34-.057l53.436-9.931c2.992-.557 5.568-2.444 6.999-5.13l25.326-47.541c1.699-3.185 4.973-5 8.353-5 1.5 0 3.02.356 4.433 1.11 1.637.873 2.968 2.19 3.851 3.813l26.235 48.26c1.453 2.673 4.045 4.539 7.042 5.07l53.073 9.402c2.502.437 4.685 1.821 6.145 3.899 1.46 2.079 2.024 4.602 1.587 7.104-.359 2.056-1.352 3.892-2.871 5.31-.149.139-.293.282-.434.431l-37.011 39.038c-2.094 2.208-3.068 5.25-2.647 8.264l7.457 53.365c.347 2.508-.304 5.001-1.832 7.021-1.528 2.019-3.751 3.321-6.259 3.669-1.883.261-3.743-.015-5.388-.801l-49.625-23.641c-2.748-1.308-5.942-1.296-8.677.037l-48.412 23.564c-4.717 2.298-10.419.329-12.716-4.388-1.171-2.404-1.063-4.628-.767-6.07.049-.237.089-.476.121-.716l6.966-53.112c.396-3.018-.604-6.051-2.716-8.242l-37.407-38.797c-3.624-3.763-3.508-9.771.256-13.392z"/><path d="m244.925 272.275c-5.523 0-10 4.478-10 10s4.477 10 10 10h22.174c5.523 0 10-4.478 10-10s-4.477-10-10-10h-1.087v-69.998c0-3.572-1.906-6.874-5-8.66-3.093-1.786-6.905-1.786-9.999 0l-11.087 6.4c-4.783 2.761-6.422 8.877-3.661 13.66 2.044 3.541 5.927 5.357 9.748 4.943v53.654h-1.088z"/><path d="m176.005 103.09c5.523 0 10-4.478 10-10s-4.477-10-10-10h-.007c-5.523 0-9.996 4.478-9.996 10s4.48 10 10.003 10z"/></g></g></svg>